<svg width="50" height="50" viewBox="0 0 50 50" fill="none" xmlns="http://www.w3.org/2000/svg">
<path fill-rule="evenodd" clip-rule="evenodd" d="M25 50C38.8071 50 50 38.8071 50 25C50 11.1929 38.8071 -1.69631e-06 25 -1.09278e-06C11.1929 -4.89256e-07 4.89256e-07 11.1929 1.09278e-06 25C1.69631e-06 38.8071 11.1929 50 25 50ZM28.6804 29.8856L28.6804 34.8619C28.6804 35.6652 27.7812 36.1406 27.1174 35.6883L12.6416 25.8264C12.059 25.4295 12.059 24.5705 12.6416 24.1736L27.1174 14.3116C27.7812 13.8594 28.6804 14.3348 28.6804 15.1381L28.6804 19.8428L37.5715 19.8428C38.1238 19.8428 38.5715 20.2905 38.5715 20.8428L38.5715 28.8856C38.5715 29.4379 38.1238 29.8856 37.5715 29.8856L28.6804 29.8856Z" fill="white" fill-opacity="0.5"/>
</svg>
