<svg width="50" height="50" viewBox="0 0 50 50" fill="none" xmlns="http://www.w3.org/2000/svg">
<path fill-rule="evenodd" clip-rule="evenodd" d="M25 2.98122e-07C11.1929 4.6277e-07 -4.6277e-07 11.1929 -2.98122e-07 25C-1.33474e-07 38.8071 11.1929 50 25 50C38.8071 50 50 38.8071 50 25C50 11.1929 38.8071 1.33474e-07 25 2.98122e-07ZM21.3196 20.1144L21.3196 15.1381C21.3196 14.3348 22.2188 13.8594 22.8826 14.3116L37.3584 24.1736C37.941 24.5705 37.941 25.4295 37.3584 25.8264L22.8826 35.6884C22.2188 36.1406 21.3196 35.6652 21.3196 34.8619L21.3196 30.1572L12.4285 30.1572C11.8762 30.1572 11.4285 29.7095 11.4285 29.1572L11.4285 21.1144C11.4285 20.5621 11.8762 20.1144 12.4285 20.1144L21.3196 20.1144Z" fill="white" fill-opacity="0.5"/>
</svg>
