<svg width="430" height="34" viewBox="0 0 430 34" fill="none" xmlns="http://www.w3.org/2000/svg">
<path d="M413.434 33.4656C411.302 33.4656 409.265 33.0976 407.323 32.3616C405.414 31.5936 403.711 30.5216 402.215 29.1456C400.719 27.7376 399.526 26.0736 398.635 24.1536C397.775 22.2016 397.346 20.0416 397.346 17.6736C397.346 15.4976 397.696 13.4176 398.396 11.4336C399.128 9.41763 400.178 7.62563 401.547 6.05763C402.947 4.48963 404.682 3.24163 406.75 2.31363C408.819 1.38563 411.19 0.921631 413.864 0.921631C416.028 0.921631 418.065 1.30563 419.975 2.07363C421.916 2.80963 423.635 3.88163 425.13 5.28963C426.626 6.66563 427.804 8.32963 428.663 10.2816C429.554 12.2016 430 14.3456 430 16.7136C430 18.8576 429.634 20.9376 428.902 22.9536C428.202 24.9696 427.151 26.7616 425.751 28.3296C424.383 29.8976 422.664 31.1456 420.595 32.0736C418.526 33.0016 416.139 33.4656 413.434 33.4656ZM414.198 31.4496C416.426 31.4496 418.272 30.9376 419.736 29.9136C421.232 28.8576 422.346 27.4016 423.078 25.5456C423.841 23.6896 424.223 21.5456 424.223 19.1136C424.223 16.9696 423.985 14.9376 423.507 13.0176C423.062 11.0976 422.377 9.38563 421.454 7.88163C420.531 6.34563 419.37 5.16163 417.969 4.32963C416.569 3.46563 414.93 3.03363 413.052 3.03363C410.888 3.03363 409.058 3.54563 407.562 4.56963C406.098 5.59363 404.984 7.01763 404.22 8.84163C403.488 10.6656 403.122 12.7936 403.122 15.2256C403.122 17.4016 403.345 19.4496 403.791 21.3696C404.236 23.2896 404.92 25.0176 405.843 26.5536C406.766 28.0576 407.912 29.2576 409.281 30.1536C410.681 31.0176 412.32 31.4496 414.198 31.4496Z" fill="#232323"/>
<path d="M349.642 32.9856C349.228 32.9856 348.894 32.9376 348.64 32.8416C348.417 32.7776 348.305 32.6336 348.305 32.4096C348.305 32.1856 348.433 32.0256 348.687 31.9296C348.974 31.8016 349.356 31.6736 349.833 31.5456C350.597 31.3536 351.233 30.9536 351.743 30.3456C352.284 29.7376 352.634 28.8896 352.793 27.8016C353.111 25.4016 353.398 22.9856 353.652 20.5536C353.907 18.0896 354.13 15.7536 354.321 13.5456C354.512 11.3056 354.639 9.32157 354.703 7.59357C354.703 7.36957 354.703 7.11357 354.703 6.82557C354.703 6.53757 354.687 6.26557 354.655 6.00957C354.655 5.65757 354.591 5.33757 354.464 5.04957C354.368 4.72957 354.146 4.45757 353.796 4.23357C353.286 3.81757 352.777 3.52957 352.268 3.36957C351.759 3.17757 351.186 3.01757 350.549 2.88957C350.199 2.82557 349.913 2.71357 349.69 2.55357C349.499 2.36157 349.403 2.15357 349.403 1.92957C349.403 1.64157 349.547 1.46557 349.833 1.40157C350.12 1.33757 350.486 1.30557 350.931 1.30557C351.313 1.30557 351.838 1.32157 352.507 1.35357C353.175 1.38556 353.907 1.43357 354.703 1.49757C355.498 1.52957 356.246 1.56157 356.946 1.59357C357.678 1.62557 358.283 1.64157 358.761 1.64157C358.983 1.64157 359.19 1.72157 359.381 1.88157C359.572 2.00957 359.699 2.20156 359.763 2.45757C359.922 3.03357 360.081 3.62557 360.24 4.23357C360.431 4.84157 360.638 5.46556 360.861 6.10556L368.213 24.4896C368.309 24.6816 368.452 24.7936 368.643 24.8256C368.866 24.8576 369.025 24.7776 369.12 24.5856L377.618 6.20157C377.809 5.46557 377.968 4.76157 378.095 4.08957C378.255 3.38557 378.398 2.79357 378.525 2.31356C378.621 1.89757 378.811 1.68957 379.098 1.68957H380.912C381.994 1.68957 383.14 1.62557 384.349 1.49757C385.559 1.33757 386.482 1.25757 387.118 1.25757C387.341 1.25757 387.58 1.30557 387.834 1.40157C388.089 1.46557 388.216 1.60957 388.216 1.83356C388.216 2.08957 388.121 2.28157 387.93 2.40957C387.739 2.53757 387.437 2.68157 387.023 2.84157C386.673 2.96957 386.291 3.11357 385.877 3.27357C385.463 3.43357 385.081 3.59357 384.731 3.75357C384.222 3.97757 383.824 4.28156 383.538 4.66557C383.251 5.01756 383.124 5.49756 383.156 6.10556C383.156 8.37757 383.204 10.4576 383.299 12.3456C383.395 14.2016 383.474 15.9776 383.538 17.6736C383.633 19.3696 383.745 21.0656 383.872 22.7616C383.999 24.4576 384.111 26.2656 384.206 28.1856C384.27 29.1136 384.604 29.8496 385.209 30.3936C385.813 30.9056 386.673 31.2736 387.787 31.4976C388.232 31.5936 388.566 31.7056 388.789 31.8336C389.044 31.9616 389.171 32.1536 389.171 32.4096C389.171 32.6016 389.06 32.7456 388.837 32.8416C388.614 32.9376 388.312 32.9856 387.93 32.9856C387.134 32.9856 386.402 32.9536 385.734 32.8896C385.065 32.8576 384.397 32.8256 383.729 32.7936C383.092 32.7616 382.424 32.7456 381.724 32.7456C381.087 32.7456 380.498 32.7616 379.957 32.7936C379.416 32.8256 378.843 32.8576 378.239 32.8896C377.634 32.9536 376.918 32.9856 376.09 32.9856C375.74 32.9856 375.438 32.9376 375.183 32.8416C374.96 32.7776 374.849 32.6336 374.849 32.4096C374.849 32.1856 374.96 31.9936 375.183 31.8336C375.438 31.6736 375.788 31.5616 376.234 31.4976C377.252 31.3376 377.952 31.0176 378.334 30.5376C378.716 30.0256 378.907 29.2416 378.907 28.1856C378.875 25.9776 378.827 23.9296 378.764 22.0416C378.732 20.1536 378.668 18.2976 378.573 16.4736C378.477 14.6176 378.382 12.6656 378.286 10.6176C378.286 10.3296 378.207 10.2016 378.048 10.2336C377.92 10.2336 377.777 10.3776 377.618 10.6656L367.306 32.9376C367.211 33.1936 367.036 33.3056 366.781 33.2736C366.526 33.2736 366.367 33.1616 366.303 32.9376C364.935 29.1936 363.487 25.5136 361.959 21.8976C360.463 18.2496 358.888 14.4416 357.233 10.4736C357.137 10.2816 356.994 10.2016 356.803 10.2336C356.644 10.2656 356.549 10.3936 356.517 10.6176C356.294 12.6336 356.087 14.5856 355.896 16.4736C355.737 18.3616 355.61 20.2336 355.514 22.0896C355.451 23.9456 355.419 25.8656 355.419 27.8496C355.419 28.7456 355.689 29.5296 356.23 30.2016C356.803 30.8416 357.615 31.2736 358.665 31.4976C359.142 31.5936 359.508 31.7056 359.763 31.8336C360.05 31.9616 360.193 32.1536 360.193 32.4096C360.193 32.6016 360.065 32.7456 359.811 32.8416C359.556 32.9376 359.238 32.9856 358.856 32.9856C357.997 32.9856 357.344 32.9536 356.899 32.8896C356.453 32.8576 356.055 32.8256 355.705 32.7936C355.355 32.7936 354.862 32.7936 354.225 32.7936C353.62 32.7936 353.079 32.8096 352.602 32.8416C352.156 32.8736 351.695 32.9056 351.218 32.9376C350.772 32.9696 350.247 32.9856 349.642 32.9856Z" fill="#232323"/>
<path d="M326.12 33.4656C323.987 33.4656 321.95 33.0976 320.009 32.3616C318.099 31.5936 316.396 30.5216 314.901 29.1456C313.405 27.7376 312.211 26.0736 311.32 24.1536C310.461 22.2016 310.031 20.0416 310.031 17.6736C310.031 15.4976 310.381 13.4176 311.081 11.4336C311.813 9.41763 312.864 7.62563 314.232 6.05763C315.633 4.48963 317.367 3.24163 319.436 2.31363C321.505 1.38563 323.876 0.921631 326.549 0.921631C328.713 0.921631 330.75 1.30563 332.66 2.07363C334.601 2.80963 336.32 3.88163 337.816 5.28963C339.312 6.66563 340.489 8.32963 341.349 10.2816C342.24 12.2016 342.685 14.3456 342.685 16.7136C342.685 18.8576 342.319 20.9376 341.587 22.9536C340.887 24.9696 339.837 26.7616 338.437 28.3296C337.068 29.8976 335.349 31.1456 333.281 32.0736C331.212 33.0016 328.825 33.4656 326.12 33.4656ZM326.883 31.4496C329.111 31.4496 330.957 30.9376 332.421 29.9136C333.917 28.8576 335.031 27.4016 335.763 25.5456C336.527 23.6896 336.909 21.5456 336.909 19.1136C336.909 16.9696 336.67 14.9376 336.193 13.0176C335.747 11.0976 335.063 9.38563 334.14 7.88163C333.217 6.34563 332.055 5.16163 330.655 4.32963C329.254 3.46563 327.615 3.03363 325.738 3.03363C323.573 3.03363 321.743 3.54563 320.247 4.56963C318.783 5.59363 317.669 7.01763 316.906 8.84163C316.174 10.6656 315.808 12.7936 315.808 15.2256C315.808 17.4016 316.03 19.4496 316.476 21.3696C316.922 23.2896 317.606 25.0176 318.529 26.5536C319.452 28.0576 320.598 29.2576 321.966 30.1536C323.366 31.0176 325.006 31.4496 326.883 31.4496Z" fill="#232323"/>
<path d="M279.288 33.0336C278.938 33.0336 278.652 32.9696 278.429 32.8416C278.206 32.7136 278.095 32.5696 278.095 32.4096C278.095 32.1536 278.222 31.9616 278.476 31.8336C278.731 31.6736 278.938 31.5776 279.097 31.5456C280.307 31.2576 281.198 30.8896 281.771 30.4416C282.375 29.9936 282.678 29.2416 282.678 28.1856V6.05761C282.678 5.28961 282.598 4.72961 282.439 4.37761C282.28 3.99361 281.977 3.70561 281.532 3.51361C281.118 3.32161 280.513 3.14561 279.718 2.98561C278.795 2.79361 278.333 2.47361 278.333 2.02561C278.333 1.80161 278.445 1.64161 278.667 1.54561C278.922 1.44961 279.224 1.40161 279.574 1.40161C280.37 1.40161 281.086 1.41761 281.723 1.44961C282.359 1.48161 282.964 1.51361 283.537 1.54561C284.11 1.57761 284.746 1.59361 285.447 1.59361C286.179 1.59361 286.879 1.59361 287.547 1.59361C288.216 1.56161 288.9 1.52961 289.6 1.49761C290.3 1.46561 291.048 1.44961 291.844 1.44961C292.226 1.44961 292.512 1.49761 292.703 1.59361C292.926 1.65761 293.037 1.80161 293.037 2.02561C293.037 2.28161 292.926 2.48961 292.703 2.64961C292.48 2.77761 292.13 2.88961 291.653 2.98561C290.443 3.27361 289.489 3.59361 288.788 3.94561C288.088 4.26561 287.738 4.88961 287.738 5.81761V28.0416C287.738 29.0336 287.945 29.7536 288.359 30.2016C288.804 30.6176 289.695 30.8256 291.032 30.8256H296.57C297.398 30.8256 298.114 30.6976 298.718 30.4416C299.355 30.1856 299.848 29.8976 300.198 29.5776C300.803 29.0336 301.265 28.5216 301.583 28.0416C301.933 27.5296 302.299 26.8576 302.681 26.0256C302.84 25.6736 303.015 25.3376 303.206 25.0176C303.397 24.6976 303.604 24.5376 303.827 24.5376C304.049 24.5376 304.209 24.6496 304.304 24.8736C304.399 25.0656 304.447 25.2576 304.447 25.4496C304.447 25.5136 304.431 25.5936 304.399 25.6896C304.368 25.7856 304.352 25.8816 304.352 25.9776C304.129 26.8416 303.922 27.6096 303.731 28.2816C303.54 28.9536 303.381 29.5936 303.254 30.2016C303.158 30.8096 303.079 31.4656 303.015 32.1696C302.983 32.3936 302.92 32.6016 302.824 32.7936C302.729 32.9536 302.554 33.0336 302.299 33.0336C301.058 33.0336 299.737 33.0176 298.336 32.9856C296.936 32.9536 295.52 32.9216 294.088 32.8896C292.655 32.8896 291.239 32.8736 289.839 32.8416C288.47 32.8096 287.149 32.7936 285.876 32.7936C285.112 32.7936 284.253 32.8096 283.298 32.8416C282.375 32.8736 281.516 32.9056 280.72 32.9376C279.956 33.0016 279.479 33.0336 279.288 33.0336Z" fill="#232323"/>
<path d="M239.986 33.0336C239.604 33.0336 239.286 32.9696 239.031 32.8416C238.777 32.7456 238.649 32.5856 238.649 32.3616C238.649 32.1056 238.777 31.8976 239.031 31.7376C239.286 31.5776 239.636 31.4176 240.082 31.2576C240.941 31.0016 241.721 30.6176 242.421 30.1056C243.121 29.5936 243.694 28.8096 244.14 27.7536C244.999 25.8016 245.795 23.9456 246.527 22.1856C247.259 20.3936 247.959 18.6336 248.627 16.9056C249.296 15.1776 249.98 13.4016 250.68 11.5776C251.38 9.7216 252.096 7.7536 252.828 5.6736C253.115 4.9376 253.322 4.3296 253.449 3.8496C253.576 3.3376 253.656 2.8896 253.688 2.5056C254.101 2.4096 254.483 2.3136 254.833 2.2176C255.183 2.0896 255.565 1.9136 255.979 1.6896C256.361 1.4976 256.648 1.2256 256.838 0.873598C257.061 0.489597 257.236 0.217598 257.364 0.0575982C257.427 0.0255986 257.491 0.00959976 257.555 0.00959976C257.65 -0.0223998 257.73 0.0256005 257.793 0.153601C257.889 0.313601 257.952 0.489599 257.984 0.681599C258.048 0.873598 258.112 1.0816 258.175 1.3056C258.907 3.6416 259.655 6.0256 260.419 8.4576C261.215 10.8576 261.994 13.2096 262.758 15.5136C263.522 17.8176 264.238 19.9616 264.907 21.9456C265.575 23.8976 266.148 25.6096 266.625 27.0816C266.975 28.1376 267.389 28.9536 267.867 29.5296C268.344 30.0736 268.853 30.4896 269.394 30.7776C269.935 31.0336 270.524 31.2256 271.161 31.3536C271.638 31.4496 271.988 31.5936 272.211 31.7856C272.466 31.9776 272.593 32.2016 272.593 32.4576C272.593 32.6496 272.466 32.7776 272.211 32.8416C271.988 32.9376 271.702 32.9856 271.352 32.9856C270.842 32.9856 270.174 32.9536 269.346 32.8896C268.519 32.8576 267.66 32.8256 266.768 32.7936C265.877 32.7616 265.066 32.7456 264.334 32.7456C263.729 32.7456 263.061 32.7456 262.329 32.7456C261.597 32.7456 260.896 32.7616 260.228 32.7936C259.592 32.8256 259.035 32.8416 258.557 32.8416C258.175 32.8416 257.857 32.7936 257.602 32.6976C257.38 32.5696 257.268 32.4096 257.268 32.2176C257.268 31.9616 257.411 31.7536 257.698 31.5936C257.984 31.4336 258.318 31.3216 258.7 31.2576C259.782 31.0656 260.562 30.7776 261.04 30.3936C261.549 30.0096 261.756 29.4976 261.66 28.8576C261.628 28.3136 261.517 27.6416 261.326 26.8416C261.135 26.0096 260.912 25.1456 260.658 24.2496C260.403 23.3216 260.164 22.4736 259.942 21.7056C259.878 21.4496 259.767 21.2896 259.607 21.2256C259.448 21.1616 259.178 21.1296 258.796 21.1296H249.964C249.805 21.1296 249.662 21.1936 249.534 21.3216C249.407 21.4176 249.28 21.6256 249.152 21.9456C249.057 22.3296 248.898 22.8256 248.675 23.4336C248.484 24.0096 248.293 24.6336 248.102 25.3056C247.911 25.9456 247.736 26.5536 247.577 27.1296C247.45 27.6736 247.37 28.0736 247.338 28.3296C247.243 29.1296 247.434 29.7696 247.911 30.2496C248.42 30.6976 249.168 31.0496 250.155 31.3056C251.11 31.5616 251.587 31.8816 251.587 32.2656C251.587 32.4896 251.46 32.6496 251.205 32.7456C250.982 32.8096 250.68 32.8416 250.298 32.8416C249.693 32.8416 248.993 32.8256 248.197 32.7936C247.402 32.7616 246.558 32.7456 245.667 32.7456C244.649 32.7456 243.662 32.7936 242.707 32.8896C241.753 32.9856 240.845 33.0336 239.986 33.0336ZM251.301 19.1616H258.271C258.716 19.1616 258.939 19.0816 258.939 18.9216C258.939 18.8256 258.923 18.7456 258.891 18.6816C258.891 18.6176 258.875 18.5216 258.844 18.3936L255.311 7.0176C255.152 6.5056 255.024 6.2496 254.929 6.2496C254.865 6.2496 254.754 6.4896 254.595 6.9696L250.441 18.3936C250.378 18.5856 250.346 18.7136 250.346 18.7776C250.346 18.9376 250.425 19.0496 250.584 19.1136C250.775 19.1456 251.014 19.1616 251.301 19.1616Z" fill="#232323"/>
<path d="M213.138 32.9856C212.788 32.9856 212.486 32.9376 212.231 32.8416C212.008 32.7776 211.897 32.6336 211.897 32.4096C211.897 31.9936 212.358 31.6896 213.281 31.4976C214.491 31.2736 215.35 30.9216 215.859 30.4416C216.4 29.9616 216.671 29.1616 216.671 28.0416V7.35362C216.671 6.00962 216.48 5.00162 216.098 4.32962C215.748 3.65762 214.984 3.20962 213.806 2.98562C213.297 2.88962 212.931 2.76162 212.708 2.60162C212.486 2.44162 212.374 2.24962 212.374 2.02562C212.374 1.83362 212.486 1.68962 212.708 1.59362C212.963 1.46562 213.265 1.40162 213.616 1.40162C214.443 1.40162 215.127 1.41762 215.668 1.44962C216.209 1.44962 216.735 1.46562 217.244 1.49762C217.753 1.52962 218.326 1.54562 218.962 1.54562C219.631 1.54562 220.283 1.51362 220.92 1.44962C221.556 1.38562 222.177 1.32162 222.782 1.25762C223.418 1.19362 224.055 1.16162 224.691 1.16162C228.415 1.16162 231.391 1.94562 233.619 3.51362C235.847 5.08162 236.961 7.24162 236.961 9.99362C236.961 11.9456 236.563 13.7536 235.767 15.4176C235.003 17.0816 233.81 18.4256 232.187 19.4496C230.563 20.4416 228.495 20.9376 225.98 20.9376C225.248 20.9376 224.675 20.8256 224.262 20.6016C223.88 20.3776 223.689 20.1536 223.689 19.9296C223.689 19.7376 223.784 19.5776 223.975 19.4496C224.166 19.2896 224.341 19.2096 224.5 19.2096C224.723 19.2096 224.978 19.2416 225.264 19.3056C225.582 19.3376 226.028 19.3536 226.601 19.3536C228.32 19.3536 229.609 18.5696 230.468 17.0016C231.359 15.4336 231.805 13.3056 231.805 10.6176C231.805 7.92962 231.136 5.96162 229.8 4.71362C228.495 3.43362 226.792 2.79362 224.691 2.79362C223.8 2.79362 223.084 2.96962 222.543 3.32162C222.034 3.64162 221.779 4.18562 221.779 4.95362L221.731 27.6576C221.731 28.7456 221.986 29.6096 222.495 30.2496C223.004 30.8576 223.88 31.2736 225.121 31.4976C225.567 31.5936 225.901 31.7056 226.123 31.8336C226.378 31.9616 226.505 32.1536 226.505 32.4096C226.505 32.6016 226.394 32.7456 226.171 32.8416C225.948 32.9376 225.646 32.9856 225.264 32.9856C224.468 32.9856 223.752 32.9536 223.116 32.8896C222.511 32.8576 221.922 32.8256 221.349 32.7936C220.808 32.7296 220.236 32.6976 219.631 32.6976C218.867 32.6976 218.135 32.7296 217.435 32.7936C216.766 32.8256 216.082 32.8576 215.382 32.8896C214.714 32.9536 213.966 32.9856 213.138 32.9856Z" fill="#232323"/>
<path d="M172.768 33.4656C170.636 33.4656 168.599 33.0976 166.658 32.3616C164.748 31.5936 163.045 30.5216 161.549 29.1456C160.054 27.7376 158.86 26.0736 157.969 24.1536C157.11 22.2016 156.68 20.0416 156.68 17.6736C156.68 15.4976 157.03 13.4176 157.73 11.4336C158.462 9.41763 159.512 7.62563 160.881 6.05763C162.281 4.48963 164.016 3.24163 166.085 2.31363C168.153 1.38563 170.525 0.921631 173.198 0.921631C175.362 0.921631 177.399 1.30563 179.309 2.07363C181.25 2.80963 182.969 3.88163 184.465 5.28963C185.961 6.66563 187.138 8.32963 187.998 10.2816C188.889 12.2016 189.334 14.3456 189.334 16.7136C189.334 18.8576 188.968 20.9376 188.236 22.9536C187.536 24.9696 186.486 26.7616 185.085 28.3296C183.717 29.8976 181.998 31.1456 179.929 32.0736C177.861 33.0016 175.474 33.4656 172.768 33.4656ZM173.532 31.4496C175.76 31.4496 177.606 30.9376 179.07 29.9136C180.566 28.8576 181.68 27.4016 182.412 25.5456C183.176 23.6896 183.558 21.5456 183.558 19.1136C183.558 16.9696 183.319 14.9376 182.842 13.0176C182.396 11.0976 181.712 9.38563 180.789 7.88163C179.866 6.34563 178.704 5.16163 177.304 4.32963C175.903 3.46563 174.264 3.03363 172.386 3.03363C170.222 3.03363 168.392 3.54563 166.896 4.56963C165.432 5.59363 164.318 7.01763 163.554 8.84163C162.822 10.6656 162.456 12.7936 162.456 15.2256C162.456 17.4016 162.679 19.4496 163.125 21.3696C163.57 23.2896 164.255 25.0176 165.178 26.5536C166.101 28.0576 167.246 29.2576 168.615 30.1536C170.015 31.0176 171.654 31.4496 173.532 31.4496Z" fill="#232323"/>
<path d="M135.547 32.9856C135.197 32.9856 134.895 32.9376 134.64 32.8416C134.417 32.7776 134.306 32.6336 134.306 32.4096C134.306 31.9936 134.768 31.6896 135.691 31.4976C136.9 31.2736 137.791 30.9216 138.364 30.4416C138.937 29.9616 139.223 29.1776 139.223 28.0896V6.39361C139.223 5.30561 139.001 4.53761 138.555 4.08961C138.109 3.60961 137.282 3.24161 136.072 2.98561C135.149 2.79361 134.688 2.47361 134.688 2.02561C134.688 1.80161 134.799 1.64161 135.022 1.54561C135.245 1.44961 135.531 1.40161 135.881 1.40161C136.709 1.40161 137.441 1.41761 138.078 1.44961C138.746 1.48161 139.382 1.51361 139.987 1.54561C140.592 1.57761 141.244 1.59361 141.945 1.59361C142.613 1.59361 143.233 1.59361 143.806 1.59361C144.411 1.56161 145.016 1.52961 145.621 1.49761C146.257 1.46561 146.973 1.44961 147.769 1.44961C148.151 1.44961 148.453 1.49761 148.676 1.59361C148.899 1.65761 149.01 1.80161 149.01 2.02561C149.01 2.28161 148.883 2.48961 148.628 2.64961C148.405 2.77761 148.071 2.88961 147.626 2.98561C146.384 3.27361 145.509 3.64161 145 4.08961C144.522 4.53761 144.284 5.30561 144.284 6.39361V28.0896C144.284 29.1456 144.586 29.9136 145.191 30.3936C145.796 30.8736 146.687 31.2416 147.864 31.4976C148.342 31.5936 148.692 31.7056 148.915 31.8336C149.137 31.9616 149.249 32.1536 149.249 32.4096C149.249 32.6016 149.137 32.7456 148.915 32.8416C148.724 32.9376 148.437 32.9856 148.055 32.9856C147.26 32.9856 146.528 32.9536 145.859 32.8896C145.191 32.8576 144.538 32.8256 143.902 32.7936C143.297 32.7616 142.645 32.7456 141.945 32.7456C141.181 32.7456 140.465 32.7616 139.796 32.7936C139.16 32.8256 138.491 32.8576 137.791 32.8896C137.091 32.9536 136.343 32.9856 135.547 32.9856Z" fill="#232323"/>
<path d="M112.508 33.4656C110.281 33.4656 108.164 33.0816 106.159 32.3136C104.186 31.5456 102.419 30.4576 100.86 29.0496C99.3321 27.6416 98.1227 25.9776 97.2315 24.0576C96.3404 22.1376 95.8948 20.0576 95.8948 17.8176C95.8948 15.5136 96.3404 13.3376 97.2315 11.2896C98.1227 9.2416 99.3798 7.4496 101.003 5.9136C102.626 4.3776 104.504 3.1776 106.636 2.3136C108.801 1.4176 111.14 0.969604 113.654 0.969604C114.227 0.969604 114.959 1.0176 115.85 1.11361C116.773 1.20961 117.728 1.3376 118.715 1.4976C119.701 1.6576 120.592 1.8336 121.388 2.0256C122.216 2.2176 122.82 2.4096 123.202 2.6016C123.393 2.6656 123.536 2.7616 123.632 2.8896C123.727 2.98561 123.791 3.14561 123.823 3.3696C123.95 4.3616 124.062 5.3376 124.157 6.2976C124.253 7.22561 124.3 8.00961 124.3 8.6496C124.3 8.9056 124.221 9.12961 124.062 9.32161C123.934 9.51361 123.775 9.60961 123.584 9.60961C123.234 9.60961 122.979 9.48161 122.82 9.22561C122.661 8.96961 122.518 8.69761 122.391 8.40961C122.168 7.8656 121.929 7.3696 121.675 6.9216C121.42 6.4416 121.07 5.96161 120.624 5.48161C120.37 5.1616 119.94 4.8256 119.335 4.4736C118.762 4.0896 117.999 3.7536 117.044 3.46561C116.121 3.17761 114.975 3.03361 113.606 3.03361C111.792 3.03361 110.153 3.4176 108.689 4.1856C107.225 4.9216 105.984 5.94561 104.965 7.25761C103.947 8.56961 103.167 10.0576 102.626 11.7216C102.085 13.3856 101.815 15.1296 101.815 16.9536C101.815 19.1936 102.101 21.2096 102.674 23.0016C103.279 24.7936 104.09 26.3136 105.109 27.5616C106.159 28.8096 107.384 29.7696 108.785 30.4416C110.185 31.0816 111.665 31.4016 113.225 31.4016C114.72 31.4016 115.834 31.2096 116.566 30.8256C117.33 30.4416 117.855 30.1216 118.142 29.8656C118.492 29.5456 118.794 29.0816 119.049 28.4736C119.335 27.8336 119.479 27.1296 119.479 26.3616C119.479 26.0736 119.479 25.7376 119.479 25.3536C119.51 24.9696 119.526 24.5856 119.526 24.2016C119.558 23.7856 119.574 23.4336 119.574 23.1456C119.574 22.7936 119.526 22.4896 119.431 22.2336C119.367 21.9776 119.24 21.7696 119.049 21.6096C118.762 21.3216 118.349 21.0976 117.808 20.9376C117.267 20.7456 116.725 20.6016 116.184 20.5056C115.675 20.4096 115.261 20.3456 114.943 20.3136C114.752 20.3136 114.529 20.2336 114.275 20.0736C114.02 19.8816 113.893 19.6576 113.893 19.4016C113.893 19.1776 114.02 19.0016 114.275 18.8736C114.529 18.7136 114.736 18.6336 114.895 18.6336C115.659 18.6336 116.375 18.6496 117.044 18.6816C117.744 18.7136 118.444 18.7456 119.144 18.7776C119.845 18.8096 120.592 18.8256 121.388 18.8256C122.216 18.8256 122.995 18.7936 123.727 18.7296C124.491 18.6656 125.319 18.6336 126.21 18.6336C126.369 18.6336 126.56 18.6976 126.783 18.8256C127.006 18.9216 127.117 19.1136 127.117 19.4016C127.117 19.6576 126.99 19.8656 126.735 20.0256C126.512 20.1856 126.321 20.2816 126.162 20.3136C125.398 20.5376 124.857 20.8256 124.539 21.1776C124.253 21.5296 124.062 22.0256 123.966 22.6656C123.871 23.3696 123.807 23.9936 123.775 24.5376C123.743 25.0816 123.727 25.6576 123.727 26.2656V27.6576C123.727 27.8176 123.759 27.9616 123.823 28.0896C123.918 28.1856 124.014 28.3136 124.109 28.4736C124.205 28.6336 124.316 28.7936 124.444 28.9536C124.603 29.0816 124.682 29.2256 124.682 29.3856C124.682 29.5136 124.634 29.6896 124.539 29.9136C124.475 30.1056 124.268 30.2336 123.918 30.2976C123.696 30.3296 123.25 30.5216 122.582 30.8736C121.945 31.1936 121.134 31.5616 120.147 31.9776C119.192 32.3616 118.062 32.6976 116.757 32.9856C115.484 33.3056 114.068 33.4656 112.508 33.4656Z" fill="#232323"/>
<path d="M88.2705 33.8016C87.1247 33.8016 86.0903 33.6736 85.1674 33.4176C84.2762 33.1936 83.4646 32.8416 82.7326 32.3616C82.0324 31.8816 81.3959 31.2896 80.823 30.5856C80.091 29.6256 79.3749 28.6976 78.6747 27.8016C78.0063 26.9056 77.3061 25.8976 76.5741 24.7776C75.8421 23.6256 74.9827 22.2336 73.9961 20.6016C73.5824 19.8016 72.9936 19.2096 72.2297 18.8256C71.6887 18.5376 71.1317 18.3456 70.5588 18.2496C70.0177 18.1216 69.5722 18.0416 69.2221 18.0096C68.9993 18.0096 68.8242 18.1056 68.6969 18.2976C68.6014 18.4576 68.5537 18.6816 68.5537 18.9696V27.6576C68.5537 28.6816 68.8083 29.5296 69.3175 30.2016C69.8268 30.8416 70.702 31.2736 71.9433 31.4976C72.3888 31.5936 72.723 31.7056 72.9458 31.8336C73.2004 31.9616 73.3277 32.1536 73.3277 32.4096C73.3277 32.6016 73.2163 32.7456 72.9936 32.8416C72.7708 32.9376 72.4684 32.9856 72.0865 32.9856C71.2908 32.9856 70.5747 32.9536 69.9382 32.8896C69.3335 32.8576 68.7447 32.8256 68.1718 32.7936C67.6307 32.7296 67.0578 32.6976 66.4531 32.6976C65.6893 32.6976 64.9573 32.7296 64.2571 32.7936C63.5887 32.8256 62.9044 32.8576 62.2042 32.8896C61.5359 32.9536 60.7879 32.9856 59.9604 32.9856C59.6103 32.9856 59.308 32.9376 59.0534 32.8416C58.8306 32.7776 58.7192 32.6336 58.7192 32.4096C58.7192 31.9936 59.1807 31.6896 60.1036 31.4976C61.3131 31.2736 62.1724 30.9216 62.6816 30.4416C63.2227 29.9616 63.4932 29.1616 63.4932 28.0416V7.20956C63.4932 6.12156 63.4296 5.30557 63.3022 4.76157C63.1749 4.18557 62.9044 3.78556 62.4907 3.56157C62.1087 3.30556 61.4881 3.11357 60.6288 2.98557C60.1196 2.92157 59.7535 2.80957 59.5308 2.64957C59.308 2.45757 59.1966 2.24957 59.1966 2.02557C59.1966 1.83357 59.308 1.68957 59.5308 1.59357C59.7854 1.46557 60.0877 1.40157 60.4378 1.40157C61.3608 1.40157 62.0769 1.41757 62.5861 1.44957C63.0954 1.48157 63.5728 1.51357 64.0184 1.54557C64.4958 1.54557 65.0846 1.54557 65.7848 1.54557C66.4213 1.54557 66.9942 1.52957 67.5034 1.49757C68.0126 1.43357 68.5855 1.38556 69.2221 1.35357C69.8586 1.28957 70.6702 1.25757 71.6568 1.25757C75.2214 1.25757 77.9426 1.91357 79.8204 3.22556C81.73 4.50557 82.6848 6.45757 82.6848 9.08157C82.6848 10.5216 82.3825 11.7536 81.7778 12.7776C81.2049 13.8016 80.4729 14.6496 79.5817 15.3216C78.6906 15.9936 77.7994 16.5216 76.9083 16.9056C76.781 16.9376 76.7173 17.0176 76.7173 17.1456C76.7491 17.2416 76.7969 17.3696 76.8605 17.5296C77.8472 19.0016 78.7861 20.4096 79.6772 21.7536C80.6002 23.0656 81.5709 24.3456 82.5894 25.5936C83.6397 26.8096 84.8332 28.0416 86.1699 29.2896C87.0611 30.1216 87.984 30.6176 88.9389 30.7776C89.9255 30.9376 90.9758 31.0176 92.0897 31.0176C92.5671 31.0176 92.8058 31.2416 92.8058 31.6896C92.8058 32.2336 92.5512 32.6496 92.042 32.9376C91.5646 33.2576 90.9758 33.4816 90.2756 33.6096C89.5754 33.7376 88.907 33.8016 88.2705 33.8016ZM70.8452 16.7616C72.2138 16.7616 73.3755 16.4576 74.3303 15.8496C75.3169 15.2096 76.0648 14.3776 76.5741 13.3536C77.1151 12.2976 77.3857 11.1616 77.3857 9.94557C77.3857 8.56957 77.2106 7.35357 76.8605 6.29757C76.5104 5.24157 75.8739 4.42557 74.9509 3.84957C74.0279 3.24157 72.7071 2.93756 70.9885 2.93756C70.0973 2.93756 69.4926 3.25756 69.1743 3.89756C68.856 4.50557 68.681 5.67357 68.6492 7.40157C68.6174 8.16957 68.5855 9.19357 68.5537 10.4736C68.5537 11.7536 68.5537 13.2736 68.5537 15.0336C68.5537 15.8016 68.7606 16.2816 69.1743 16.4736C69.5881 16.6656 70.145 16.7616 70.8452 16.7616Z" fill="#232323"/>
<path d="M28.5301 33.0336C28.1481 33.0336 27.8458 32.9856 27.623 32.8896C27.4002 32.7936 27.2888 32.6496 27.2888 32.4576C27.2888 32.0416 27.7503 31.7376 28.6733 31.5456C29.8509 31.2896 30.6943 30.9376 31.2035 30.4896C31.7446 30.0096 32.0151 29.2096 32.0151 28.0896V6.39364C32.0151 5.30564 31.7923 4.52164 31.3468 4.04164C30.9012 3.56164 30.0896 3.20964 28.912 2.98564C28.4346 2.88964 28.0845 2.76164 27.8617 2.60164C27.6389 2.44164 27.5275 2.24964 27.5275 2.02564C27.5275 1.83364 27.6389 1.68964 27.8617 1.59364C28.0845 1.46564 28.3869 1.40164 28.7688 1.40164C29.8191 1.40164 30.758 1.41764 31.5855 1.44964C32.4448 1.48164 33.2723 1.51364 34.068 1.54564C34.8955 1.57764 35.7866 1.59364 36.7414 1.59364C38.0145 1.59364 39.3512 1.59364 40.7516 1.59364C42.1838 1.56164 43.4728 1.52964 44.6186 1.49764C45.7007 1.49764 46.5919 1.48164 47.292 1.44964C48.0241 1.38564 48.4537 1.35364 48.581 1.35364C48.772 1.35364 48.963 1.40164 49.1539 1.49764C49.3767 1.56164 49.504 1.70564 49.5358 1.92964C49.695 2.92164 49.8541 3.89764 50.0133 4.85764C50.2042 5.78564 50.2997 6.60164 50.2997 7.30564C50.2997 7.62564 50.2201 7.84964 50.061 7.97764C49.9337 8.07364 49.7905 8.12164 49.6313 8.12164C49.4722 8.12164 49.3449 8.07364 49.2494 7.97764C49.1539 7.88164 49.0584 7.73764 48.963 7.54564C48.7402 6.90564 48.5333 6.32964 48.3423 5.81764C48.1514 5.27364 47.9286 4.87364 47.674 4.61764C47.2602 4.16964 46.7828 3.83364 46.2418 3.60964C45.7007 3.38564 45.096 3.27364 44.4276 3.27364H39.0807C38.6669 3.27364 38.2214 3.43364 37.744 3.75364C37.2984 4.04164 37.0756 4.45764 37.0756 5.00164V14.7936C37.0756 15.1136 37.1711 15.3696 37.362 15.5616C37.553 15.7536 37.7758 15.8496 38.0304 15.8496H42.5657C43.4887 15.8496 44.1253 15.6416 44.4754 15.2256C44.8255 14.8096 45.1119 14.1696 45.3347 13.3056C45.5575 12.6656 45.8598 12.3456 46.2418 12.3456C46.4009 12.3456 46.5441 12.4256 46.6714 12.5856C46.7987 12.7136 46.8624 12.9216 46.8624 13.2096C46.8624 13.4016 46.8465 13.7216 46.8146 14.1696C46.7828 14.6176 46.751 15.0816 46.7192 15.5616C46.6873 16.0416 46.6714 16.4256 46.6714 16.7136C46.6714 17.0656 46.6714 17.4976 46.6714 18.0096C46.7032 18.4896 46.7351 18.9696 46.7669 19.4496C46.7987 19.9296 46.8146 20.2816 46.8146 20.5056C46.8465 20.7936 46.8146 21.0336 46.7192 21.2256C46.6555 21.3856 46.5441 21.4656 46.385 21.4656C45.8757 21.4656 45.4938 21.0016 45.2392 20.0736C45.0482 19.2416 44.7777 18.6176 44.4276 18.2016C44.1094 17.7856 43.632 17.5776 42.9954 17.5776H38.5556C38.0463 17.5776 37.6644 17.6576 37.4098 17.8176C37.187 17.9776 37.0756 18.3136 37.0756 18.8256V27.9936C37.0756 29.1136 37.3143 29.8976 37.7917 30.3456C38.2691 30.7616 39.0011 30.9696 39.9878 30.9696H43.7593C44.6504 30.9696 45.4302 30.9056 46.0985 30.7776C46.7669 30.6496 47.3398 30.4096 47.8172 30.0576C48.3582 29.6736 48.8357 29.1776 49.2494 28.5696C49.6632 27.9616 50.0928 27.2096 50.5384 26.3136C50.6657 26.1216 50.793 25.9776 50.9203 25.8816C51.0476 25.7536 51.1908 25.7056 51.35 25.7376C51.5409 25.7376 51.6682 25.8176 51.7319 25.9776C51.8274 26.1056 51.8751 26.2816 51.8751 26.5056C51.8751 26.8576 51.7956 27.3856 51.6364 28.0896C51.4773 28.7936 51.2704 29.5296 51.0158 30.2976C50.793 31.0656 50.5861 31.7216 50.3952 32.2656C50.2997 32.4896 50.1883 32.6656 50.061 32.7936C49.9337 32.9536 49.7745 33.0336 49.5836 33.0336C48.4378 33.0336 47.2443 33.0176 46.0031 32.9856C44.7618 32.9536 43.4887 32.9216 42.1838 32.8896C40.8789 32.8576 39.574 32.8256 38.2691 32.7936C36.9642 32.7616 35.6752 32.7456 34.4021 32.7456C33.7338 32.7456 33.0972 32.7616 32.4925 32.7936C31.8878 32.8576 31.2672 32.9056 30.6306 32.9376C30.0259 33.0016 29.3257 33.0336 28.5301 33.0336Z" fill="#232323"/>
<path d="M8.35457 33.5136C7.01784 33.5136 5.76067 33.3216 4.58308 32.9376C3.40548 32.5856 2.32337 32.0416 1.33673 31.3056C1.20942 31.1776 1.0662 31.0336 0.907068 30.8736C0.77976 30.6816 0.68428 30.4896 0.620626 30.2976C0.397837 29.5616 0.238703 28.6496 0.143222 27.5616C0.0795683 26.4416 0.0318269 25.4496 0 24.5856C0 24.3616 0.0954809 24.2016 0.286442 24.1056C0.477404 23.9776 0.700194 23.9136 0.954809 23.9136C1.1776 23.9136 1.35265 23.9616 1.47995 24.0576C1.63909 24.1216 1.75048 24.2656 1.81413 24.4896C2.4825 26.9216 3.46913 28.7456 4.77404 29.9616C6.07894 31.1456 7.49524 31.7376 9.02293 31.7376C10.105 31.7376 11.028 31.4976 11.7919 31.0176C12.5876 30.5376 13.2082 29.8976 13.6538 29.0976C14.0993 28.2656 14.3221 27.3376 14.3221 26.3136C14.3221 25.0976 14.1152 24.1056 13.7015 23.3376C13.2877 22.5696 12.683 21.8816 11.8874 21.2736C11.0917 20.6656 10.1051 20.0096 8.92746 19.3056C7.65438 18.5376 6.39722 17.7376 5.15596 16.9056C3.94654 16.0736 2.94399 15.0976 2.14832 13.9776C1.35264 12.8576 0.954809 11.4816 0.954809 9.84963C0.954809 8.12163 1.35264 6.60163 2.14832 5.28963C2.97582 3.94563 4.16933 2.88963 5.72885 2.12163C7.28837 1.32163 9.16616 0.921631 11.3622 0.921631C12.508 0.921631 13.5424 1.04963 14.4653 1.30563C15.4202 1.52963 16.184 1.76963 16.7569 2.02563C17.0433 2.12163 17.2661 2.28163 17.4252 2.50563C17.6162 2.72963 17.7594 3.00163 17.8549 3.32163C18.014 3.99363 18.1891 4.77763 18.3801 5.67363C18.571 6.56963 18.6665 7.48163 18.6665 8.40963C18.6665 8.76163 18.4119 8.93763 17.9026 8.93763C17.6162 8.93763 17.3457 8.87363 17.0911 8.74563C16.8364 8.61763 16.6773 8.45763 16.6137 8.26563C15.9771 6.47363 15.1814 5.11363 14.2266 4.18563C13.3037 3.25763 12.1261 2.79363 10.6939 2.79363C9.73904 2.79363 8.8638 2.96963 8.06813 3.32163C7.30428 3.64163 6.68366 4.18563 6.20625 4.95363C5.76068 5.68963 5.53789 6.66563 5.53789 7.88163C5.53789 8.74563 5.82433 9.56163 6.39721 10.3296C7.00192 11.0656 7.7976 11.7856 8.78423 12.4896C9.8027 13.1616 10.9326 13.8656 12.1738 14.6016C13.4787 15.4016 14.6563 16.2336 15.7066 17.0976C16.7569 17.9616 17.5844 18.9536 18.1891 20.0736C18.7938 21.1616 19.0962 22.4736 19.0962 24.0096C19.0962 26.0256 18.6506 27.7536 17.7594 29.1936C16.8683 30.6016 15.6111 31.6736 13.9879 32.4096C12.3966 33.1456 10.5188 33.5136 8.35457 33.5136Z" fill="#232323"/>
</svg>
